<svg width="62" height="72" viewBox="0 0 62 72" fill="none" xmlns="http://www.w3.org/2000/svg">
<g clipPath="url(#clip0_233_2)">
<path d="M1.45635 21.1339L31.7224 41.6438L31.0635 42.1002L1.45635 21.1339Z" fill="#470487"/>
<path d="M28.356 2.49966L58.622 23.0095L57.9631 23.466L28.356 2.49966Z" fill="#470487"/>
<path d="M29.4319 1.75429L59.6979 22.2641L59.039 22.7206L29.4319 1.75429Z" fill="#470487"/>
<path d="M30.508 1.00893L60.774 21.5188L60.1151 21.9752L30.508 1.00893Z" fill="#470487"/>
<path d="M18.6722 9.20791L48.9382 29.7178L48.2793 30.1742L18.6722 9.20791Z" fill="#470487"/>
<path d="M17.5961 9.95339L47.8621 30.4632L47.2032 30.9197L17.5961 9.95339Z" fill="#470487"/>
<path d="M16.5202 10.6988L46.7862 31.2086L46.1273 31.665L16.5202 10.6988Z" fill="#470487"/>
<path d="M15.4441 11.4441L45.7101 31.954L45.0512 32.4104L15.4441 11.4441Z" fill="#470487"/>
<path d="M14.3682 12.1895L44.6342 32.6993L43.9753 33.1558L14.3682 12.1895Z" fill="#470487"/>
<path d="M13.2922 12.9348L43.5582 33.4447L42.8993 33.9011L13.2922 12.9348Z" fill="#470487"/>
<path d="M12.2162 13.6802L42.4822 34.19L41.8233 34.6465L12.2162 13.6802Z" fill="#470487"/>
<path d="M11.1403 14.4256L41.4063 34.9354L40.7474 35.3919L11.1403 14.4256Z" fill="#470487"/>
<path d="M10.0643 15.1709L40.3303 35.6808L39.6714 36.1372L10.0643 15.1709Z" fill="#470487"/>
<path d="M8.98833 15.9164L39.2543 36.4263L38.5954 36.8827L8.98833 15.9164Z" fill="#470487"/>
<path d="M7.91228 16.6618L38.1783 37.1716L37.5194 37.6281L7.91228 16.6618Z" fill="#470487"/>
<path d="M6.83635 17.407L37.1024 37.9169L36.4435 38.3733L6.83635 17.407Z" fill="#470487"/>
<path d="M5.7603 18.1524L36.0263 38.6622L35.3674 39.1187L5.7603 18.1524Z" fill="#470487"/>
<path d="M4.68437 18.8978L34.9504 39.4077L34.2915 39.8641L4.68437 18.8978Z" fill="#470487"/>
<path d="M3.60832 19.6432L33.8743 40.1531L33.2154 40.6095L3.60832 19.6432Z" fill="#470487"/>
<line y1="-0.5" x2="37.9592" y2="-0.5" transform="matrix(0.822028 0.569447 -0.822028 0.569447 30.1276 0)" stroke="black"/>
<line y1="-0.5" x2="37.0223" y2="-0.5" transform="matrix(0.822028 -0.569447 0.822028 0.569447 1.07593 21.0823)" stroke="black"/>
<line y1="-0.5" x2="37.0223" y2="-0.5" transform="matrix(0.822028 -0.569447 0.822028 0.569447 31.2035 42.698)" stroke="black"/>
<line x1="0.5" y1="50" x2="0.5" y2="21" stroke="black"/>
<line x1="30.7106" y1="71.5922" x2="61.7106" y2="49.5922" stroke="black"/>
<line y1="-0.5" x2="37.0223" y2="-0.5" transform="matrix(0.822028 0.569447 -0.822028 0.569447 0 21.6157)" stroke="black"/>
<line y1="-0.5" x2="37.0223" y2="-0.5" transform="matrix(0.822028 0.569447 -0.822028 0.569447 0 50.6852)" stroke="black"/>
<path d="M61 21V21C61.5523 21 62 21.4477 62 22V49C62 49.5523 61.5523 50 61 50V50V21Z" fill="black"/>
<path d="M2.5324 20.3886L32.7984 40.8984L32.1395 41.3549L2.5324 20.3886Z" fill="#470487"/>
<path d="M27.28 3.24514L57.546 23.755L56.8871 24.2114L27.28 3.24514Z" fill="#470487"/>
<path d="M26.204 3.9905L56.47 24.5004L55.8111 24.9568L26.204 3.9905Z" fill="#470487"/>
<path d="M25.128 4.73574L55.394 25.2456L54.7351 25.702L25.128 4.73574Z" fill="#470487"/>
<path d="M24.052 5.4811L54.3181 25.991L53.6592 26.4474L24.052 5.4811Z" fill="#470487"/>
<path d="M22.9761 6.22658L53.2421 26.7364L52.5832 27.1929L22.9761 6.22658Z" fill="#470487"/>
<path d="M21.9001 6.97195L52.1661 27.4818L51.5072 27.9382L21.9001 6.97195Z" fill="#470487"/>
<path d="M20.8241 7.71731L51.0902 28.2272L50.4313 28.6836L20.8241 7.71731Z" fill="#470487"/>
<path d="M19.7481 8.46267L50.0141 28.9725L49.3552 29.429L19.7481 8.46267Z" fill="#470487"/>
<path d="M0.406174 51.0857L30.6722 71.5956L30.0133 72.052L0.406174 51.0857Z" fill="black"/>
<path d="M0.382371 24.7329L30.6484 45.2428L29.9895 45.6992L0.382371 24.7329Z" fill="#470487"/>
<path d="M0.381394 23.6787L30.6474 44.1886L29.9885 44.645L0.381394 23.6787Z" fill="#470487"/>
<path d="M0.380418 22.6247L30.6464 43.1345L29.9875 43.5909L0.380418 22.6247Z" fill="#470487"/>
<path d="M0.390916 34.2199L30.6569 54.7297L29.998 55.1862L0.390916 34.2199Z" fill="#470487"/>
<path d="M0.391892 35.2739L30.6579 55.7838L29.999 56.2402L0.391892 35.2739Z" fill="#470487"/>
<path d="M0.392747 36.3281L30.6588 56.838L29.9999 57.2944L0.392747 36.3281Z" fill="#470487"/>
<path d="M0.393845 37.3822L30.6599 57.8921L30.001 58.3485L0.393845 37.3822Z" fill="#470487"/>
<path d="M0.3947 38.4363L30.6607 58.9462L30.0018 59.4026L0.3947 38.4363Z" fill="#470487"/>
<path d="M0.395676 39.4905L30.6617 60.0003L30.0028 60.4568L0.395676 39.4905Z" fill="#470487"/>
<path d="M0.396531 40.5446L30.6625 61.0544L30.0036 61.5109L0.396531 40.5446Z" fill="#470487"/>
<path d="M0.397629 41.5987L30.6636 62.1085L30.0047 62.5649L0.397629 41.5987Z" fill="#470487"/>
<path d="M0.398484 42.6527L30.6645 63.1626L30.0056 63.619L0.398484 42.6527Z" fill="#470487"/>
<path d="M0.399461 43.7069L30.6655 64.2168L30.0066 64.6732L0.399461 43.7069Z" fill="#470487"/>
<path d="M0.400437 44.761L30.6664 65.2709L30.0075 65.7273L0.400437 44.761Z" fill="#470487"/>
<path d="M0.401414 45.8151L30.6674 66.3249L30.0085 66.7814L0.401414 45.8151Z" fill="#470487"/>
<path d="M0.40239 46.8693L30.6684 67.3791L30.0095 67.8356L0.40239 46.8693Z" fill="#470487"/>
<path d="M0.403245 47.9234L30.6693 68.4332L30.0104 68.8897L0.403245 47.9234Z" fill="#470487"/>
<path d="M0.404221 48.9774L30.6702 69.4873L30.0113 69.9437L0.404221 48.9774Z" fill="#470487"/>
<path d="M0.405198 50.0315L30.6712 70.5414L30.0123 70.9978L0.405198 50.0315Z" fill="#470487"/>
<path d="M0.383347 25.787L30.6494 46.2969L29.9905 46.7533L0.383347 25.787Z" fill="#470487"/>
<path d="M0.384202 26.8411L30.6502 47.3509L29.9913 47.8074L0.384202 26.8411Z" fill="#470487"/>
<path d="M0.385178 27.8952L30.6512 48.405L29.9923 48.8615L0.385178 27.8952Z" fill="#470487"/>
<path d="M0.386155 28.9494L30.6522 49.4592L29.9933 49.9157L0.386155 28.9494Z" fill="#470487"/>
<path d="M0.387131 30.0034L30.6531 50.5133L29.9942 50.9697L0.387131 30.0034Z" fill="#470487"/>
<path d="M0.387986 31.0574L30.654 51.5672L29.9951 52.0237L0.387986 31.0574Z" fill="#470487"/>
<path d="M0.388962 32.1116L30.655 52.6214L29.9961 53.0779L0.388962 32.1116Z" fill="#470487"/>
<path d="M0.390061 33.1658L30.6561 53.6756L29.9972 54.1321L0.390061 33.1658Z" fill="#470487"/>
<path d="M60.9957 22.6246L31.3885 43.5909L30.7296 43.1345L60.9957 22.6246Z" fill="#470487"/>
<path d="M60.5472 49.4376L30.9622 70.4193L30.259 69.9321L60.5472 49.4376Z" fill="#470487"/>
<path d="M61.2958 50.2635L31.6887 71.2298L31.0298 70.7734L61.2958 50.2635Z" fill="black"/>
<path d="M60.8439 39.4901L31.2368 60.4564L30.5779 59.9999L60.8439 39.4901Z" fill="#470487"/>
<path d="M60.8534 38.436L31.2463 59.4023L30.5874 58.9459L60.8534 38.436Z" fill="#470487"/>
<path d="M60.8628 37.3819L31.2557 58.3482L30.5968 57.8918L60.8628 37.3819Z" fill="#470487"/>
<path d="M60.8725 36.328L31.2654 57.2943L30.6065 56.8378L60.8725 36.328Z" fill="#470487"/>
<path d="M60.8819 35.2738L31.2748 56.2401L30.6159 55.7836L60.8819 35.2738Z" fill="#470487"/>
<path d="M60.8914 34.2196L31.2843 55.1859L30.6254 54.7294L60.8914 34.2196Z" fill="#470487"/>
<path d="M60.9009 33.1656L31.2938 54.1319L30.6349 53.6755L60.9009 33.1656Z" fill="#470487"/>
<path d="M60.9104 32.1114L31.3033 53.0777L30.6444 52.6213L60.9104 32.1114Z" fill="#470487"/>
<path d="M60.9198 31.0574L31.3127 52.0236L30.6538 51.5672L60.9198 31.0574Z" fill="#470487"/>
<path d="M60.9294 30.0033L31.3223 50.9696L30.6634 50.5131L60.9294 30.0033Z" fill="#470487"/>
<path d="M60.9388 28.9493L31.3317 49.9156L30.6728 49.4592L60.9388 28.9493Z" fill="#470487"/>
<path d="M60.9483 27.8951L31.3412 48.8614L30.6823 48.405L60.9483 27.8951Z" fill="#470487"/>
<path d="M60.9577 26.841L31.3506 47.8073L30.6917 47.3509L60.9577 26.841Z" fill="#470487"/>
<path d="M60.9671 25.7868L31.36 46.7531L30.7011 46.2967L60.9671 25.7868Z" fill="#470487"/>
<path d="M60.9767 24.7329L31.3696 45.6992L30.7107 45.2427L60.9767 24.7329Z" fill="#470487"/>
<path d="M60.9861 23.6788L31.379 44.6451L30.7201 44.1887L60.9861 23.6788Z" fill="#470487"/>
<path d="M60.7681 47.9228L31.161 68.8891L30.5021 68.4327L60.7681 47.9228Z" fill="#470487"/>
<path d="M60.7776 46.8689L31.1705 67.8352L30.5116 67.3787L60.7776 46.8689Z" fill="#470487"/>
<path d="M60.787 45.8148L31.1799 66.7811L30.521 66.3246L60.787 45.8148Z" fill="#470487"/>
<path d="M60.7966 44.7605L31.1894 65.7268L30.5305 65.2703L60.7966 44.7605Z" fill="#470487"/>
<path d="M60.806 43.7064L31.1988 64.6727L30.5399 64.2163L60.806 43.7064Z" fill="#470487"/>
<path d="M60.8155 42.6524L31.2084 63.6187L30.5495 63.1623L60.8155 42.6524Z" fill="#470487"/>
<path d="M60.825 41.5984L31.2179 62.5647L30.559 62.1082L60.825 41.5984Z" fill="#470487"/>
<path d="M60.8345 40.5443L31.2274 61.5106L30.5685 61.0541L60.8345 40.5443Z" fill="#470487"/>
<line x1="30.5" y1="71" x2="30.5" y2="42" stroke="black"/>
</g>
<defs>
<clipPath id="clip0_233_2">
<rect width="62" height="72" fill="white"/>
</clipPath>
</defs>
</svg>
